<svg width="818" height="177" viewBox="0 0 818 177" fill="none" xmlns="http://www.w3.org/2000/svg">
<path d="M0.5 20C0.5 8.95431 9.45431 0 20.5 0H797.5C808.546 0 817.5 8.95431 817.5 20V177H0.5V20Z" fill="#36454F"/>
<path d="M223.773 107L240.273 77.3L244.053 84.2L231.393 107H223.773ZM249.753 73.88L268.053 107H260.493L245.913 80.72L242.133 73.88L245.913 67.04L249.753 73.88ZM299.031 67.16H304.731V92.54C304.731 95.54 303.651 98.48 301.611 100.64C300.831 101.54 299.931 102.32 299.031 102.98C295.671 105.56 291.531 107 286.971 107C282.471 107 278.331 105.5 274.971 102.98C274.011 102.26 273.171 101.48 272.331 100.64C270.291 98.42 269.211 95.48 269.211 92.48V67.16H274.971V89.18C274.971 95.66 280.071 101.06 286.551 101.3C286.731 101.3 286.851 101.3 286.971 101.3C287.151 101.3 287.271 101.3 287.391 101.3C293.931 101.06 299.031 95.66 299.031 89.18V67.16ZM330.859 107H325.099V75.8H330.859V107ZM346.099 72.92H310.519V67.16H346.099V72.92ZM367.823 72.86C359.963 72.86 353.603 79.28 353.603 87.08C353.603 94.94 359.963 101.3 367.823 101.3C375.623 101.3 381.983 94.94 381.983 87.08C381.983 79.28 375.623 72.86 367.823 72.86ZM347.843 87.08C347.843 76.04 356.783 67.16 367.823 67.16C378.803 67.16 387.743 76.04 387.743 87.08C387.743 98.12 378.803 107 367.823 107C356.783 107 347.843 98.12 347.843 87.08ZM399.189 101.3H424.449V107H393.429V66.86H399.189V101.3ZM436.588 88.52V101.3H466.108V107H430.828V75.8H436.588V82.76H462.208V88.52H436.588ZM430.828 67.16H466.108V72.92H430.828V67.16ZM471.859 107L488.359 77.3L492.139 84.2L479.479 107H471.859ZM497.839 73.88L516.139 107H508.579L493.999 80.72L490.219 73.88L493.999 67.04L497.839 73.88ZM542.464 84.2C546.724 84.2 550.444 86.54 552.424 89.96C553.324 91.64 553.924 93.56 553.924 95.6C553.924 97.7 553.324 99.62 552.424 101.3C550.444 104.72 546.724 107 542.464 107H530.104C525.844 107 522.124 104.72 520.144 101.3C519.244 99.68 518.704 97.88 518.644 95.9H524.404C524.584 98.9 527.044 101.3 530.104 101.3H542.464C545.584 101.3 548.164 98.72 548.164 95.6C548.164 92.48 545.584 89.96 542.464 89.96H530.044C526.864 89.96 523.924 88.64 521.884 86.48C521.224 85.82 520.624 85.04 520.144 84.2C519.184 82.58 518.644 80.6 518.644 78.56C518.644 76.52 519.184 74.6 520.144 72.92C522.124 69.5 525.844 67.16 530.044 67.16H542.164C542.284 67.16 542.404 67.16 542.464 67.16C542.584 67.16 542.644 67.16 542.764 67.16C546.904 67.28 550.444 69.56 552.364 72.92C552.424 72.92 552.424 72.92 552.424 72.92C553.324 74.48 553.864 76.34 553.924 78.26H548.164C547.984 75.32 545.644 73.04 542.704 72.92H530.044C526.924 72.92 524.404 75.44 524.404 78.56C524.404 81.5 526.624 83.9 529.504 84.2C529.684 84.2 529.864 84.2 530.104 84.2C530.404 84.2 530.764 84.2 531.064 84.2H542.464ZM566.021 88.52V101.3H595.541V107H560.261V75.8H566.021V82.76H591.641V88.52H566.021ZM560.261 67.16H595.541V72.92H560.261V67.16Z" fill="white"/>
</svg>
