<svg width="401" height="47" viewBox="0 0 401 47" fill="none" xmlns="http://www.w3.org/2000/svg">
<path d="M0.83 47L20.08 12.35L24.49 20.4L9.72 47H0.83ZM31.14 8.36L52.49 47H43.67L26.66 16.34L22.25 8.36L26.66 0.379999L31.14 8.36ZM84.4308 0.519998H91.0808V30.13C91.0808 33.63 89.8208 37.06 87.4408 39.58C86.5308 40.63 85.4808 41.54 84.4308 42.31C80.5108 45.32 75.6808 47 70.3608 47C65.1108 47 60.2808 45.25 56.3608 42.31C55.2408 41.47 54.2608 40.56 53.2808 39.58C50.9008 36.99 49.6408 33.56 49.6408 30.06V0.519998H56.3608V26.21C56.3608 33.77 62.3108 40.07 69.8708 40.35C70.0808 40.35 70.2208 40.35 70.3608 40.35C70.5708 40.35 70.7108 40.35 70.8508 40.35C78.4808 40.07 84.4308 33.77 84.4308 26.21V0.519998ZM117.364 47H110.644V10.6H117.364V47ZM135.144 7.24H93.6341V0.519998H135.144V7.24ZM156.289 7.17C147.119 7.17 139.699 14.66 139.699 23.76C139.699 32.93 147.119 40.35 156.289 40.35C165.389 40.35 172.809 32.93 172.809 23.76C172.809 14.66 165.389 7.17 156.289 7.17ZM132.979 23.76C132.979 10.88 143.409 0.519998 156.289 0.519998C169.099 0.519998 179.529 10.88 179.529 23.76C179.529 36.64 169.099 47 156.289 47C143.409 47 132.979 36.64 132.979 23.76ZM188.683 40.35H218.153V47H181.963V0.169998H188.683V40.35ZM228.114 25.44V40.35H262.554V47H221.394V10.6H228.114V18.72H258.004V25.44H228.114ZM221.394 0.519998H262.554V7.24H221.394V0.519998ZM265.064 47L284.314 12.35L288.724 20.4L273.954 47H265.064ZM295.374 8.36L316.724 47H307.904L290.894 16.34L286.484 8.36L290.894 0.379999L295.374 8.36ZM343.237 20.4C348.207 20.4 352.547 23.13 354.857 27.12C355.907 29.08 356.607 31.32 356.607 33.7C356.607 36.15 355.907 38.39 354.857 40.35C352.547 44.34 348.207 47 343.237 47H328.817C323.847 47 319.507 44.34 317.197 40.35C316.147 38.46 315.517 36.36 315.447 34.05H322.167C322.377 37.55 325.247 40.35 328.817 40.35H343.237C346.877 40.35 349.887 37.34 349.887 33.7C349.887 30.06 346.877 27.12 343.237 27.12H328.747C325.037 27.12 321.607 25.58 319.227 23.06C318.457 22.29 317.757 21.38 317.197 20.4C316.077 18.51 315.447 16.2 315.447 13.82C315.447 11.44 316.077 9.2 317.197 7.24C319.507 3.25 323.847 0.519998 328.747 0.519998H342.887C343.027 0.519998 343.167 0.519998 343.237 0.519998C343.377 0.519998 343.447 0.519998 343.587 0.519998C348.417 0.659996 352.547 3.32 354.787 7.24C354.857 7.24 354.857 7.24 354.857 7.24C355.907 9.06 356.537 11.23 356.607 13.47H349.887C349.677 10.04 346.947 7.38 343.517 7.24H328.747C325.107 7.24 322.167 10.18 322.167 13.82C322.167 17.25 324.757 20.05 328.117 20.4C328.327 20.4 328.537 20.4 328.817 20.4C329.167 20.4 329.587 20.4 329.937 20.4H343.237ZM366.52 25.44V40.35H400.96V47H359.8V10.6H366.52V18.72H396.41V25.44H366.52ZM359.8 0.519998H400.96V7.24H359.8V0.519998Z" fill="#36454F"/>
</svg>
