<svg width="966" height="47" viewBox="0 0 966 47" fill="none" xmlns="http://www.w3.org/2000/svg">
<path d="M2.27664 44.27L17.4666 16.9L23.6266 27.96L13.6166 46.09L13.1266 47H0.806641L2.27664 44.27ZM52.8166 44.27L54.2866 47H41.9666L41.4766 46.09L32.2366 29.43L27.6866 21.24L27.5466 20.96L21.3866 9.83L21.8766 8.92L25.8666 1.64L26.3566 0.659996H28.7366L29.1566 1.64L33.2166 8.92L52.8166 44.27ZM87.8894 0.799998H97.6894V29.71C97.6894 33.42 96.3594 36.99 93.8394 39.65C92.9294 40.63 91.9494 41.54 90.8294 42.38C86.7694 45.39 82.0094 47 76.8994 47C71.7894 47 66.9594 45.39 62.9694 42.38C61.8494 41.54 60.8694 40.63 59.8894 39.58C57.4394 36.92 56.1094 33.42 56.1094 29.64V0.799998H65.9094V26.14C65.9094 32.02 70.6694 37.06 76.4794 37.2C76.6194 37.2 76.7594 37.2 76.8994 37.2C77.0394 37.2 77.1794 37.2 77.3194 37.2C83.1294 37.06 87.8894 32.09 87.8894 26.14V0.799998ZM130.121 47H120.321V17.46H130.121V47ZM104.781 0.799998H146.431V10.6H130.121H120.321H104.781V0.799998ZM171.835 0.939996C184.505 0.939996 194.865 11.3 194.865 23.97C194.865 36.71 184.505 47 171.835 47C159.095 47 148.805 36.71 148.805 23.97C148.805 11.3 159.095 0.939996 171.835 0.939996ZM185.205 23.97C185.205 16.62 179.185 10.6 171.835 10.6C164.415 10.6 158.395 16.62 158.395 23.97C158.395 31.39 164.415 37.41 171.835 37.41C179.185 37.41 185.205 31.39 185.205 23.97ZM211.72 37.2H238.67V47H201.92V0.449998H211.72V37.2ZM245.738 0.799998H287.038V10.6H245.738V2.62V0.799998ZM255.538 27.26V37.2H287.038V47H245.738V39.02V37.2V17.39L255.538 17.46H282.908V27.26H255.538ZM293.966 44.27L309.156 16.9L315.316 27.96L305.306 46.09L304.816 47H292.496L293.966 44.27ZM344.506 44.27L345.976 47H333.656L333.166 46.09L323.926 29.43L319.376 21.24L319.236 20.96L313.076 9.83L313.566 8.92L317.556 1.64L318.046 0.659996H320.426L320.846 1.64L324.906 8.92L344.506 44.27ZM375.099 19C380.069 19 384.759 21.73 387.209 26.07C388.469 28.17 389.099 30.55 389.099 33C389.099 35.45 388.469 37.83 387.209 40C384.759 44.34 380.069 47 375.099 47H361.169C355.009 47 349.829 42.87 348.219 37.2C347.939 36.08 347.799 34.89 347.799 33.63H357.389C357.389 35.31 358.439 36.71 359.909 37.2H375.099C377.409 37.2 379.229 35.31 379.229 33C379.229 30.69 377.409 28.8 375.099 28.8H361.799C357.879 28.8 354.169 27.12 351.509 24.32C350.809 23.55 350.179 22.71 349.619 21.73C348.429 19.63 347.799 17.25 347.799 14.8C347.799 12.35 348.429 9.97 349.619 7.87C352.069 3.46 356.759 0.799998 361.799 0.799998H375.939C382.099 0.799998 387.279 4.93 388.819 10.6C389.169 11.72 389.309 12.91 389.309 14.17H379.719C379.719 12.49 378.669 11.09 377.129 10.6H361.799C359.489 10.6 357.599 12.49 357.599 14.8C357.599 17.11 359.489 19 361.799 19H375.099ZM396.402 0.799998H437.702V10.6H396.402V2.62V0.799998ZM406.202 27.26V37.2H437.702V47H396.402V39.02V37.2V17.39L406.202 17.46H433.572V27.26H406.202ZM516.667 20.75C516.877 21.8 516.947 22.92 516.947 23.97C516.947 25.16 516.807 26.28 516.667 27.4C515.197 37.69 506.867 45.74 496.577 47H496.437H474.947V17.46H484.747V37.2H495.807C501.267 36.36 505.677 32.16 506.797 26.77C507.007 25.86 507.077 24.95 507.077 23.97C507.077 23.13 507.007 22.22 506.867 21.38C506.167 18.16 504.417 15.29 501.757 13.33C500.147 12.14 498.327 11.3 496.367 10.88C495.737 10.74 495.037 10.67 494.337 10.6H474.947V0.799998L495.527 0.869997C500.497 1.22 505.327 3.25 509.107 6.61C513.237 10.25 515.897 15.29 516.667 20.75ZM523.961 0.799998H565.261V10.6H523.961V2.62V0.799998ZM533.761 27.26V37.2H565.261V47H523.961V39.02V37.2V17.39L533.761 17.46H561.131V27.26H533.761ZM572.189 44.27L587.379 16.9L593.539 27.96L583.529 46.09L583.039 47H570.719L572.189 44.27ZM622.729 44.27L624.199 47H611.879L611.389 46.09L602.149 29.43L597.599 21.24L597.459 20.96L591.299 9.83L591.789 8.92L595.779 1.64L596.269 0.659996H598.649L599.069 1.64L603.129 8.92L622.729 44.27ZM639.65 37.2H666.6V47H629.85V0.449998H639.65V37.2ZM673.668 0.799998H714.968V10.6H673.668V2.62V0.799998ZM683.468 27.26V37.2H714.968V47H673.668V39.02V37.2V17.39L683.468 17.46H710.838V27.26H683.468ZM764.978 44.2L766.658 47H755.178L754.618 46.16L742.718 26.63C742.438 26.7 742.158 26.77 741.878 26.84C741.738 26.84 741.598 26.84 741.528 26.84C741.458 26.91 741.388 26.91 741.318 26.91C741.178 26.91 741.038 26.91 740.898 26.98C740.828 26.98 740.758 26.98 740.688 26.98C740.478 26.98 740.338 27.05 740.198 27.05C739.988 27.05 739.848 27.05 739.708 27.05L739.638 27.12H739.498C739.358 27.12 739.218 27.12 739.078 27.12C739.078 27.12 739.008 27.12 738.938 27.12C738.798 27.12 738.728 27.12 738.588 27.12H738.448H738.378H738.308C738.168 27.12 738.028 27.19 737.888 27.19H731.798V47H721.998V17.32H737.888C739.638 17.32 741.388 16.97 742.998 16.34C743.068 16.27 743.068 16.27 743.138 16.27C744.678 15.57 746.008 14.66 747.198 13.47C748.108 12.63 748.878 11.58 749.508 10.46H742.998H721.998V0.659996H760.848L760.918 2.41C760.988 2.9 760.988 3.46 760.988 4.02C760.988 5.7 760.848 7.38 760.428 9.06C759.518 13.4 757.278 17.32 754.128 20.47C753.778 20.82 753.498 21.03 753.218 21.31C753.148 21.38 753.008 21.52 752.938 21.59C752.938 21.59 752.868 21.59 752.868 21.66C752.728 21.73 752.588 21.87 752.518 21.94C752.378 22.01 752.308 22.08 752.168 22.15C752.168 22.22 752.098 22.29 752.028 22.29L751.958 22.36C751.888 22.43 751.818 22.5 751.748 22.5L764.978 44.2ZM794.142 19C799.112 19 803.802 21.73 806.252 26.07C807.512 28.17 808.142 30.55 808.142 33C808.142 35.45 807.512 37.83 806.252 40C803.802 44.34 799.112 47 794.142 47H780.212C774.052 47 768.872 42.87 767.262 37.2C766.982 36.08 766.842 34.89 766.842 33.63H776.432C776.432 35.31 777.482 36.71 778.952 37.2H794.142C796.452 37.2 798.272 35.31 798.272 33C798.272 30.69 796.452 28.8 794.142 28.8H780.842C776.922 28.8 773.212 27.12 770.552 24.32C769.852 23.55 769.222 22.71 768.662 21.73C767.472 19.63 766.842 17.25 766.842 14.8C766.842 12.35 767.472 9.97 768.662 7.87C771.112 3.46 775.802 0.799998 780.842 0.799998H794.982C801.142 0.799998 806.322 4.93 807.862 10.6C808.212 11.72 808.352 12.91 808.352 14.17H798.762C798.762 12.49 797.712 11.09 796.172 10.6H780.842C778.532 10.6 776.642 12.49 776.642 14.8C776.642 17.11 778.532 19 780.842 19H794.142ZM846.525 0.869997H856.325V47H846.525V27.4H825.245V47H815.445V0.869997H825.245V17.53H846.525V0.869997ZM863.434 0.729999H873.234V47H863.434V0.729999ZM910.732 1.5C915.982 3.32 919.622 8.22 919.622 13.96C919.622 17.32 918.432 20.54 916.122 22.92C914.792 24.39 913.112 25.51 911.292 26.28C911.292 26.28 911.222 26.35 909.472 26.77C907.722 27.19 907.442 27.19 907.442 27.19H891.622V47H881.822V17.32H891.622H906.462C908.352 17.32 909.822 15.85 909.822 13.96C909.822 12.14 908.352 10.6 906.462 10.6C906.392 10.6 906.322 10.6 906.252 10.6L906.182 10.67H904.572V10.6H881.822V2.62V0.799998H907.092C907.092 0.799998 908.142 0.939996 909.122 1.08C910.102 1.29 910.732 1.5 910.732 1.5ZM950.89 19C955.86 19 960.55 21.73 963 26.07C964.26 28.17 964.89 30.55 964.89 33C964.89 35.45 964.26 37.83 963 40C960.55 44.34 955.86 47 950.89 47H936.96C930.8 47 925.62 42.87 924.01 37.2C923.73 36.08 923.59 34.89 923.59 33.63H933.18C933.18 35.31 934.23 36.71 935.7 37.2H950.89C953.2 37.2 955.02 35.31 955.02 33C955.02 30.69 953.2 28.8 950.89 28.8H937.59C933.67 28.8 929.96 27.12 927.3 24.32C926.6 23.55 925.97 22.71 925.41 21.73C924.22 19.63 923.59 17.25 923.59 14.8C923.59 12.35 924.22 9.97 925.41 7.87C927.86 3.46 932.55 0.799998 937.59 0.799998H951.73C957.89 0.799998 963.07 4.93 964.61 10.6C964.96 11.72 965.1 12.91 965.1 14.17H955.51C955.51 12.49 954.46 11.09 952.92 10.6H937.59C935.28 10.6 933.39 12.49 933.39 14.8C933.39 17.11 935.28 19 937.59 19H950.89Z" fill="white"/>
</svg>
