<svg width="1440" height="535" viewBox="0 0 1440 535" fill="none" xmlns="http://www.w3.org/2000/svg">
<rect width="1440" height="535" fill="#36454F"/>
<path d="M239.277 106.27L254.467 78.9L260.627 89.96L250.617 108.09L250.127 109H237.807L239.277 106.27ZM289.817 106.27L291.287 109H278.967L278.477 108.09L269.237 91.43L264.687 83.24L264.547 82.96L258.387 71.83L258.877 70.92L262.867 63.64L263.357 62.66H265.737L266.157 63.64L270.217 70.92L289.817 106.27ZM324.889 62.8H334.689V91.71C334.689 95.42 333.359 98.99 330.839 101.65C329.929 102.63 328.949 103.54 327.829 104.38C323.769 107.39 319.009 109 313.899 109C308.789 109 303.959 107.39 299.969 104.38C298.849 103.54 297.869 102.63 296.889 101.58C294.439 98.92 293.109 95.42 293.109 91.64V62.8H302.909V88.14C302.909 94.02 307.669 99.06 313.479 99.2C313.619 99.2 313.759 99.2 313.899 99.2C314.039 99.2 314.179 99.2 314.319 99.2C320.129 99.06 324.889 94.09 324.889 88.14V62.8ZM367.121 109H357.321V79.46H367.121V109ZM341.781 62.8H383.431V72.6H367.121H357.321H341.781V62.8ZM408.835 62.94C421.505 62.94 431.865 73.3 431.865 85.97C431.865 98.71 421.505 109 408.835 109C396.095 109 385.805 98.71 385.805 85.97C385.805 73.3 396.095 62.94 408.835 62.94ZM422.205 85.97C422.205 78.62 416.185 72.6 408.835 72.6C401.415 72.6 395.395 78.62 395.395 85.97C395.395 93.39 401.415 99.41 408.835 99.41C416.185 99.41 422.205 93.39 422.205 85.97ZM448.72 99.2H475.67V109H438.92V62.45H448.72V99.2ZM482.738 62.8H524.038V72.6H482.738V64.62V62.8ZM492.538 89.26V99.2H524.038V109H482.738V101.02V99.2V79.39L492.538 79.46H519.908V89.26H492.538ZM530.966 106.27L546.156 78.9L552.316 89.96L542.306 108.09L541.816 109H529.496L530.966 106.27ZM581.506 106.27L582.976 109H570.656L570.166 108.09L560.926 91.43L556.376 83.24L556.236 82.96L550.076 71.83L550.566 70.92L554.556 63.64L555.046 62.66H557.426L557.846 63.64L561.906 70.92L581.506 106.27ZM612.099 81C617.069 81 621.759 83.73 624.209 88.07C625.469 90.17 626.099 92.55 626.099 95C626.099 97.45 625.469 99.83 624.209 102C621.759 106.34 617.069 109 612.099 109H598.169C592.009 109 586.829 104.87 585.219 99.2C584.939 98.08 584.799 96.89 584.799 95.63H594.389C594.389 97.31 595.439 98.71 596.909 99.2H612.099C614.409 99.2 616.229 97.31 616.229 95C616.229 92.69 614.409 90.8 612.099 90.8H598.799C594.879 90.8 591.169 89.12 588.509 86.32C587.809 85.55 587.179 84.71 586.619 83.73C585.429 81.63 584.799 79.25 584.799 76.8C584.799 74.35 585.429 71.97 586.619 69.87C589.069 65.46 593.759 62.8 598.799 62.8H612.939C619.099 62.8 624.279 66.93 625.819 72.6C626.169 73.72 626.309 74.91 626.309 76.17H616.719C616.719 74.49 615.669 73.09 614.129 72.6H598.799C596.489 72.6 594.599 74.49 594.599 76.8C594.599 79.11 596.489 81 598.799 81H612.099ZM633.402 62.8H674.702V72.6H633.402V64.62V62.8ZM643.202 89.26V99.2H674.702V109H633.402V101.02V99.2V79.39L643.202 79.46H670.572V89.26H643.202ZM753.667 82.75C753.877 83.8 753.947 84.92 753.947 85.97C753.947 87.16 753.807 88.28 753.667 89.4C752.197 99.69 743.867 107.74 733.577 109H733.437H711.947V79.46H721.747V99.2H732.807C738.267 98.36 742.677 94.16 743.797 88.77C744.007 87.86 744.077 86.95 744.077 85.97C744.077 85.13 744.007 84.22 743.867 83.38C743.167 80.16 741.417 77.29 738.757 75.33C737.147 74.14 735.327 73.3 733.367 72.88C732.737 72.74 732.037 72.67 731.337 72.6H711.947V62.8L732.527 62.87C737.497 63.22 742.327 65.25 746.107 68.61C750.237 72.25 752.897 77.29 753.667 82.75ZM760.961 62.8H802.261V72.6H760.961V64.62V62.8ZM770.761 89.26V99.2H802.261V109H760.961V101.02V99.2V79.39L770.761 79.46H798.131V89.26H770.761ZM809.189 106.27L824.379 78.9L830.539 89.96L820.529 108.09L820.039 109H807.719L809.189 106.27ZM859.729 106.27L861.199 109H848.879L848.389 108.09L839.149 91.43L834.599 83.24L834.459 82.96L828.299 71.83L828.789 70.92L832.779 63.64L833.269 62.66H835.649L836.069 63.64L840.129 70.92L859.729 106.27ZM876.65 99.2H903.6V109H866.85V62.45H876.65V99.2ZM910.668 62.8H951.968V72.6H910.668V64.62V62.8ZM920.468 89.26V99.2H951.968V109H910.668V101.02V99.2V79.39L920.468 79.46H947.838V89.26H920.468ZM1001.98 106.2L1003.66 109H992.178L991.618 108.16L979.718 88.63C979.438 88.7 979.158 88.77 978.878 88.84C978.738 88.84 978.598 88.84 978.528 88.84C978.458 88.91 978.388 88.91 978.318 88.91C978.178 88.91 978.038 88.91 977.898 88.98C977.828 88.98 977.758 88.98 977.688 88.98C977.478 88.98 977.338 89.05 977.198 89.05C976.988 89.05 976.848 89.05 976.708 89.05L976.638 89.12H976.498C976.358 89.12 976.218 89.12 976.078 89.12C976.078 89.12 976.008 89.12 975.938 89.12C975.798 89.12 975.728 89.12 975.588 89.12H975.448H975.378H975.308C975.168 89.12 975.028 89.19 974.888 89.19H968.798V109H958.998V79.32H974.888C976.638 79.32 978.388 78.97 979.998 78.34C980.068 78.27 980.068 78.27 980.138 78.27C981.678 77.57 983.008 76.66 984.198 75.47C985.108 74.63 985.878 73.58 986.508 72.46H979.998H958.998V62.66H997.848L997.918 64.41C997.988 64.9 997.988 65.46 997.988 66.02C997.988 67.7 997.848 69.38 997.428 71.06C996.518 75.4 994.278 79.32 991.128 82.47C990.778 82.82 990.498 83.03 990.218 83.31C990.148 83.38 990.008 83.52 989.938 83.59C989.938 83.59 989.868 83.59 989.868 83.66C989.728 83.73 989.588 83.87 989.518 83.94C989.378 84.01 989.308 84.08 989.168 84.15C989.168 84.22 989.098 84.29 989.028 84.29L988.958 84.36C988.888 84.43 988.818 84.5 988.748 84.5L1001.98 106.2ZM1031.14 81C1036.11 81 1040.8 83.73 1043.25 88.07C1044.51 90.17 1045.14 92.55 1045.14 95C1045.14 97.45 1044.51 99.83 1043.25 102C1040.8 106.34 1036.11 109 1031.14 109H1017.21C1011.05 109 1005.87 104.87 1004.26 99.2C1003.98 98.08 1003.84 96.89 1003.84 95.63H1013.43C1013.43 97.31 1014.48 98.71 1015.95 99.2H1031.14C1033.45 99.2 1035.27 97.31 1035.27 95C1035.27 92.69 1033.45 90.8 1031.14 90.8H1017.84C1013.92 90.8 1010.21 89.12 1007.55 86.32C1006.85 85.55 1006.22 84.71 1005.66 83.73C1004.47 81.63 1003.84 79.25 1003.84 76.8C1003.84 74.35 1004.47 71.97 1005.66 69.87C1008.11 65.46 1012.8 62.8 1017.84 62.8H1031.98C1038.14 62.8 1043.32 66.93 1044.86 72.6C1045.21 73.72 1045.35 74.91 1045.35 76.17H1035.76C1035.76 74.49 1034.71 73.09 1033.17 72.6H1017.84C1015.53 72.6 1013.64 74.49 1013.64 76.8C1013.64 79.11 1015.53 81 1017.84 81H1031.14ZM1083.53 62.87H1093.33V109H1083.53V89.4H1062.25V109H1052.45V62.87H1062.25V79.53H1083.53V62.87ZM1100.43 62.73H1110.23V109H1100.43V62.73ZM1147.73 63.5C1152.98 65.32 1156.62 70.22 1156.62 75.96C1156.62 79.32 1155.43 82.54 1153.12 84.92C1151.79 86.39 1150.11 87.51 1148.29 88.28C1148.29 88.28 1148.22 88.35 1146.47 88.77C1144.72 89.19 1144.44 89.19 1144.44 89.19H1128.62V109H1118.82V79.32H1128.62H1143.46C1145.35 79.32 1146.82 77.85 1146.82 75.96C1146.82 74.14 1145.35 72.6 1143.46 72.6C1143.39 72.6 1143.32 72.6 1143.25 72.6L1143.18 72.67H1141.57V72.6H1118.82V64.62V62.8H1144.09C1144.09 62.8 1145.14 62.94 1146.12 63.08C1147.1 63.29 1147.73 63.5 1147.73 63.5ZM1187.89 81C1192.86 81 1197.55 83.73 1200 88.07C1201.26 90.17 1201.89 92.55 1201.89 95C1201.89 97.45 1201.26 99.83 1200 102C1197.55 106.34 1192.86 109 1187.89 109H1173.96C1167.8 109 1162.62 104.87 1161.01 99.2C1160.73 98.08 1160.59 96.89 1160.59 95.63H1170.18C1170.18 97.31 1171.23 98.71 1172.7 99.2H1187.89C1190.2 99.2 1192.02 97.31 1192.02 95C1192.02 92.69 1190.2 90.8 1187.89 90.8H1174.59C1170.67 90.8 1166.96 89.12 1164.3 86.32C1163.6 85.55 1162.97 84.71 1162.41 83.73C1161.22 81.63 1160.59 79.25 1160.59 76.8C1160.59 74.35 1161.22 71.97 1162.41 69.87C1164.86 65.46 1169.55 62.8 1174.59 62.8H1188.73C1194.89 62.8 1200.07 66.93 1201.61 72.6C1201.96 73.72 1202.1 74.91 1202.1 76.17H1192.51C1192.51 74.49 1191.46 73.09 1189.92 72.6H1174.59C1172.28 72.6 1170.39 74.49 1170.39 76.8C1170.39 79.11 1172.28 81 1174.59 81H1187.89Z" fill="white"/>
</svg>
