<svg width="908" height="474" viewBox="0 0 908 474" fill="none" xmlns="http://www.w3.org/2000/svg">
<path fill-rule="evenodd" clip-rule="evenodd" d="M0 34C0 15.2223 15.2223 0 34 0H727C745.778 0 761 15.2223 761 34V99C761 117.778 776.222 133 795 133H874C892.778 133 908 148.222 908 167V440C908 458.778 892.778 474 874 474H215C196.222 474 181 458.778 181 440V405C181 386.222 165.778 371 147 371H34C15.2223 371 0 355.778 0 337V34Z" fill="#36454F"/>
<path d="M254.83 260L274.08 225.35L278.49 233.4L263.72 260H254.83ZM285.14 221.36L306.49 260H297.67L280.66 229.34L276.25 221.36L280.66 213.38L285.14 221.36ZM338.431 213.52H345.081V243.13C345.081 246.63 343.821 250.06 341.441 252.58C340.531 253.63 339.481 254.54 338.431 255.31C334.511 258.32 329.681 260 324.361 260C319.111 260 314.281 258.25 310.361 255.31C309.241 254.47 308.261 253.56 307.281 252.58C304.901 249.99 303.641 246.56 303.641 243.06V213.52H310.361V239.21C310.361 246.77 316.311 253.07 323.871 253.35C324.081 253.35 324.221 253.35 324.361 253.35C324.571 253.35 324.711 253.35 324.851 253.35C332.481 253.07 338.431 246.77 338.431 239.21V213.52ZM371.364 260H364.644V223.6H371.364V260ZM389.144 220.24H347.634V213.52H389.144V220.24ZM410.289 220.17C401.119 220.17 393.699 227.66 393.699 236.76C393.699 245.93 401.119 253.35 410.289 253.35C419.389 253.35 426.809 245.93 426.809 236.76C426.809 227.66 419.389 220.17 410.289 220.17ZM386.979 236.76C386.979 223.88 397.409 213.52 410.289 213.52C423.099 213.52 433.529 223.88 433.529 236.76C433.529 249.64 423.099 260 410.289 260C397.409 260 386.979 249.64 386.979 236.76ZM442.683 253.35H472.153V260H435.963V213.17H442.683V253.35ZM482.114 238.44V253.35H516.554V260H475.394V223.6H482.114V231.72H512.004V238.44H482.114ZM475.394 213.52H516.554V220.24H475.394V213.52ZM519.064 260L538.314 225.35L542.724 233.4L527.954 260H519.064ZM549.374 221.36L570.724 260H561.904L544.894 229.34L540.484 221.36L544.894 213.38L549.374 221.36ZM597.237 233.4C602.207 233.4 606.547 236.13 608.857 240.12C609.907 242.08 610.607 244.32 610.607 246.7C610.607 249.15 609.907 251.39 608.857 253.35C606.547 257.34 602.207 260 597.237 260H582.817C577.847 260 573.507 257.34 571.197 253.35C570.147 251.46 569.517 249.36 569.447 247.05H576.167C576.377 250.55 579.247 253.35 582.817 253.35H597.237C600.877 253.35 603.887 250.34 603.887 246.7C603.887 243.06 600.877 240.12 597.237 240.12H582.747C579.037 240.12 575.607 238.58 573.227 236.06C572.457 235.29 571.757 234.38 571.197 233.4C570.077 231.51 569.447 229.2 569.447 226.82C569.447 224.44 570.077 222.2 571.197 220.24C573.507 216.25 577.847 213.52 582.747 213.52H596.887C597.027 213.52 597.167 213.52 597.237 213.52C597.377 213.52 597.447 213.52 597.587 213.52C602.417 213.66 606.547 216.32 608.787 220.24C608.857 220.24 608.857 220.24 608.857 220.24C609.907 222.06 610.537 224.23 610.607 226.47H603.887C603.677 223.04 600.947 220.38 597.517 220.24H582.747C579.107 220.24 576.167 223.18 576.167 226.82C576.167 230.25 578.757 233.05 582.117 233.4C582.327 233.4 582.537 233.4 582.817 233.4C583.167 233.4 583.587 233.4 583.937 233.4H597.237ZM620.52 238.44V253.35H654.96V260H613.8V223.6H620.52V231.72H650.41V238.44H620.52ZM613.8 213.52H654.96V220.24H613.8V213.52Z" fill="white"/>
<rect y="378" width="173" height="93" rx="34" fill="#36454F" fill-opacity="0.5"/>
<rect x="768" width="140" height="126" rx="34" fill="#36454F" fill-opacity="0.5"/>
</svg>
