<svg width="817" height="177" viewBox="0 0 817 177" fill="none" xmlns="http://www.w3.org/2000/svg">
<path d="M0 20C0 8.95431 8.95431 0 20 0H797C808.046 0 817 8.95431 817 20V177H0V20Z" fill="#36454F"/>
<path d="M223.273 107L239.773 77.3L243.553 84.2L230.893 107H223.273ZM249.253 73.88L267.553 107H259.993L245.413 80.72L241.633 73.88L245.413 67.04L249.253 73.88ZM298.531 67.16H304.231V92.54C304.231 95.54 303.151 98.48 301.111 100.64C300.331 101.54 299.431 102.32 298.531 102.98C295.171 105.56 291.031 107 286.471 107C281.971 107 277.831 105.5 274.471 102.98C273.511 102.26 272.671 101.48 271.831 100.64C269.791 98.42 268.711 95.48 268.711 92.48V67.16H274.471V89.18C274.471 95.66 279.571 101.06 286.051 101.3C286.231 101.3 286.351 101.3 286.471 101.3C286.651 101.3 286.771 101.3 286.891 101.3C293.431 101.06 298.531 95.66 298.531 89.18V67.16ZM330.359 107H324.599V75.8H330.359V107ZM345.599 72.92H310.019V67.16H345.599V72.92ZM367.323 72.86C359.463 72.86 353.103 79.28 353.103 87.08C353.103 94.94 359.463 101.3 367.323 101.3C375.123 101.3 381.483 94.94 381.483 87.08C381.483 79.28 375.123 72.86 367.323 72.86ZM347.343 87.08C347.343 76.04 356.283 67.16 367.323 67.16C378.303 67.16 387.243 76.04 387.243 87.08C387.243 98.12 378.303 107 367.323 107C356.283 107 347.343 98.12 347.343 87.08ZM398.689 101.3H423.949V107H392.929V66.86H398.689V101.3ZM436.088 88.52V101.3H465.608V107H430.328V75.8H436.088V82.76H461.708V88.52H436.088ZM430.328 67.16H465.608V72.92H430.328V67.16ZM471.359 107L487.859 77.3L491.639 84.2L478.979 107H471.359ZM497.339 73.88L515.639 107H508.079L493.499 80.72L489.719 73.88L493.499 67.04L497.339 73.88ZM541.964 84.2C546.224 84.2 549.944 86.54 551.924 89.96C552.824 91.64 553.424 93.56 553.424 95.6C553.424 97.7 552.824 99.62 551.924 101.3C549.944 104.72 546.224 107 541.964 107H529.604C525.344 107 521.624 104.72 519.644 101.3C518.744 99.68 518.204 97.88 518.144 95.9H523.904C524.084 98.9 526.544 101.3 529.604 101.3H541.964C545.084 101.3 547.664 98.72 547.664 95.6C547.664 92.48 545.084 89.96 541.964 89.96H529.544C526.364 89.96 523.424 88.64 521.384 86.48C520.724 85.82 520.124 85.04 519.644 84.2C518.684 82.58 518.144 80.6 518.144 78.56C518.144 76.52 518.684 74.6 519.644 72.92C521.624 69.5 525.344 67.16 529.544 67.16H541.664C541.784 67.16 541.904 67.16 541.964 67.16C542.084 67.16 542.144 67.16 542.264 67.16C546.404 67.28 549.944 69.56 551.864 72.92C551.924 72.92 551.924 72.92 551.924 72.92C552.824 74.48 553.364 76.34 553.424 78.26H547.664C547.484 75.32 545.144 73.04 542.204 72.92H529.544C526.424 72.92 523.904 75.44 523.904 78.56C523.904 81.5 526.124 83.9 529.004 84.2C529.184 84.2 529.364 84.2 529.604 84.2C529.904 84.2 530.264 84.2 530.564 84.2H541.964ZM565.521 88.52V101.3H595.041V107H559.761V75.8H565.521V82.76H591.141V88.52H565.521ZM559.761 67.16H595.041V72.92H559.761V67.16Z" fill="white"/>
</svg>
