<svg width="1440" height="145" viewBox="0 0 1440 145" fill="none" xmlns="http://www.w3.org/2000/svg">
<g clip-path="url(#clip0_131_137)">
<rect width="1440" height="145" fill="white"/>
<path d="M760.277 130.27L775.467 102.9L781.627 113.96L771.617 132.09L771.127 133H758.807L760.277 130.27ZM810.817 130.27L812.287 133H799.967L799.477 132.09L790.237 115.43L785.687 107.24L785.547 106.96L779.387 95.83L779.877 94.92L783.867 87.64L784.357 86.66H786.737L787.157 87.64L791.217 94.92L810.817 130.27ZM845.889 86.8H855.689V115.71C855.689 119.42 854.359 122.99 851.839 125.65C850.929 126.63 849.949 127.54 848.829 128.38C844.769 131.39 840.009 133 834.899 133C829.789 133 824.959 131.39 820.969 128.38C819.849 127.54 818.869 126.63 817.889 125.58C815.439 122.92 814.109 119.42 814.109 115.64V86.8H823.909V112.14C823.909 118.02 828.669 123.06 834.479 123.2C834.619 123.2 834.759 123.2 834.899 123.2C835.039 123.2 835.179 123.2 835.319 123.2C841.129 123.06 845.889 118.09 845.889 112.14V86.8ZM888.121 133H878.321V103.46H888.121V133ZM862.781 86.8H904.431V96.6H888.121H878.321H862.781V86.8ZM929.835 86.94C942.505 86.94 952.865 97.3 952.865 109.97C952.865 122.71 942.505 133 929.835 133C917.095 133 906.805 122.71 906.805 109.97C906.805 97.3 917.095 86.94 929.835 86.94ZM943.205 109.97C943.205 102.62 937.185 96.6 929.835 96.6C922.415 96.6 916.395 102.62 916.395 109.97C916.395 117.39 922.415 123.41 929.835 123.41C937.185 123.41 943.205 117.39 943.205 109.97ZM969.72 123.2H996.67V133H959.92V86.45H969.72V123.2ZM1003.74 86.8H1045.04V96.6H1003.74V88.62V86.8ZM1013.54 113.26V123.2H1045.04V133H1003.74V125.02V123.2V103.39L1013.54 103.46H1040.91V113.26H1013.54ZM1051.97 130.27L1067.16 102.9L1073.32 113.96L1063.31 132.09L1062.82 133H1050.5L1051.97 130.27ZM1102.51 130.27L1103.98 133H1091.66L1091.17 132.09L1081.93 115.43L1077.38 107.24L1077.24 106.96L1071.08 95.83L1071.57 94.92L1075.56 87.64L1076.05 86.66H1078.43L1078.85 87.64L1082.91 94.92L1102.51 130.27ZM1133.1 105C1138.07 105 1142.76 107.73 1145.21 112.07C1146.47 114.17 1147.1 116.55 1147.1 119C1147.1 121.45 1146.47 123.83 1145.21 126C1142.76 130.34 1138.07 133 1133.1 133H1119.17C1113.01 133 1107.83 128.87 1106.22 123.2C1105.94 122.08 1105.8 120.89 1105.8 119.63H1115.39C1115.39 121.31 1116.44 122.71 1117.91 123.2H1133.1C1135.41 123.2 1137.23 121.31 1137.23 119C1137.23 116.69 1135.41 114.8 1133.1 114.8H1119.8C1115.88 114.8 1112.17 113.12 1109.51 110.32C1108.81 109.55 1108.18 108.71 1107.62 107.73C1106.43 105.63 1105.8 103.25 1105.8 100.8C1105.8 98.35 1106.43 95.97 1107.62 93.87C1110.07 89.46 1114.76 86.8 1119.8 86.8H1133.94C1140.1 86.8 1145.28 90.93 1146.82 96.6C1147.17 97.72 1147.31 98.91 1147.31 100.17H1137.72C1137.72 98.49 1136.67 97.09 1135.13 96.6H1119.8C1117.49 96.6 1115.6 98.49 1115.6 100.8C1115.6 103.11 1117.49 105 1119.8 105H1133.1ZM1154.4 86.8H1195.7V96.6H1154.4V88.62V86.8ZM1164.2 113.26V123.2H1195.7V133H1154.4V125.02V123.2V103.39L1164.2 103.46H1191.57V113.26H1164.2ZM1274.67 106.75C1274.88 107.8 1274.95 108.92 1274.95 109.97C1274.95 111.16 1274.81 112.28 1274.67 113.4C1273.2 123.69 1264.87 131.74 1254.58 133H1254.44H1232.95V103.46H1242.75V123.2H1253.81C1259.27 122.36 1263.68 118.16 1264.8 112.77C1265.01 111.86 1265.08 110.95 1265.08 109.97C1265.08 109.13 1265.01 108.22 1264.87 107.38C1264.17 104.16 1262.42 101.29 1259.76 99.33C1258.15 98.14 1256.33 97.3 1254.37 96.88C1253.74 96.74 1253.04 96.67 1252.34 96.6H1232.95V86.8L1253.53 86.87C1258.5 87.22 1263.33 89.25 1267.11 92.61C1271.24 96.25 1273.9 101.29 1274.67 106.75ZM1281.96 86.8H1323.26V96.6H1281.96V88.62V86.8ZM1291.76 113.26V123.2H1323.26V133H1281.96V125.02V123.2V103.39L1291.76 103.46H1319.13V113.26H1291.76ZM1330.19 130.27L1345.38 102.9L1351.54 113.96L1341.53 132.09L1341.04 133H1328.72L1330.19 130.27ZM1380.73 130.27L1382.2 133H1369.88L1369.39 132.09L1360.15 115.43L1355.6 107.24L1355.46 106.96L1349.3 95.83L1349.79 94.92L1353.78 87.64L1354.27 86.66H1356.65L1357.07 87.64L1361.13 94.92L1380.73 130.27ZM1397.65 123.2H1424.6V133H1387.85V86.45H1397.65V123.2ZM1431.67 86.8H1472.97V96.6H1431.67V88.62V86.8ZM1441.47 113.26V123.2H1472.97V133H1431.67V125.02V123.2V103.39L1441.47 103.46H1468.84V113.26H1441.47ZM1522.98 130.2L1524.66 133H1513.18L1512.62 132.16L1500.72 112.63C1500.44 112.7 1500.16 112.77 1499.88 112.84C1499.74 112.84 1499.6 112.84 1499.53 112.84C1499.46 112.91 1499.39 112.91 1499.32 112.91C1499.18 112.91 1499.04 112.91 1498.9 112.98C1498.83 112.98 1498.76 112.98 1498.69 112.98C1498.48 112.98 1498.34 113.05 1498.2 113.05C1497.99 113.05 1497.85 113.05 1497.71 113.05L1497.64 113.12H1497.5C1497.36 113.12 1497.22 113.12 1497.08 113.12C1497.08 113.12 1497.01 113.12 1496.94 113.12C1496.8 113.12 1496.73 113.12 1496.59 113.12H1496.45H1496.38H1496.31C1496.17 113.12 1496.03 113.19 1495.89 113.19H1489.8V133H1480V103.32H1495.89C1497.64 103.32 1499.39 102.97 1501 102.34C1501.07 102.27 1501.07 102.27 1501.14 102.27C1502.68 101.57 1504.01 100.66 1505.2 99.47C1506.11 98.63 1506.88 97.58 1507.51 96.46H1501H1480V86.66H1518.85L1518.92 88.41C1518.99 88.9 1518.99 89.46 1518.99 90.02C1518.99 91.7 1518.85 93.38 1518.43 95.06C1517.52 99.4 1515.28 103.32 1512.13 106.47C1511.78 106.82 1511.5 107.03 1511.22 107.31C1511.15 107.38 1511.01 107.52 1510.94 107.59C1510.94 107.59 1510.87 107.59 1510.87 107.66C1510.73 107.73 1510.59 107.87 1510.52 107.94C1510.38 108.01 1510.31 108.08 1510.17 108.15C1510.17 108.22 1510.1 108.29 1510.03 108.29L1509.96 108.36C1509.89 108.43 1509.82 108.5 1509.75 108.5L1522.98 130.2ZM1552.14 105C1557.11 105 1561.8 107.73 1564.25 112.07C1565.51 114.17 1566.14 116.55 1566.14 119C1566.14 121.45 1565.51 123.83 1564.25 126C1561.8 130.34 1557.11 133 1552.14 133H1538.21C1532.05 133 1526.87 128.87 1525.26 123.2C1524.98 122.08 1524.84 120.89 1524.84 119.63H1534.43C1534.43 121.31 1535.48 122.71 1536.95 123.2H1552.14C1554.45 123.2 1556.27 121.31 1556.27 119C1556.27 116.69 1554.45 114.8 1552.14 114.8H1538.84C1534.92 114.8 1531.21 113.12 1528.55 110.32C1527.85 109.55 1527.22 108.71 1526.66 107.73C1525.47 105.63 1524.84 103.25 1524.84 100.8C1524.84 98.35 1525.47 95.97 1526.66 93.87C1529.11 89.46 1533.8 86.8 1538.84 86.8H1552.98C1559.14 86.8 1564.32 90.93 1565.86 96.6C1566.21 97.72 1566.35 98.91 1566.35 100.17H1556.76C1556.76 98.49 1555.71 97.09 1554.17 96.6H1538.84C1536.53 96.6 1534.64 98.49 1534.64 100.8C1534.64 103.11 1536.53 105 1538.84 105H1552.14ZM1604.53 86.87H1614.33V133H1604.53V113.4H1583.25V133H1573.45V86.87H1583.25V103.53H1604.53V86.87ZM1621.43 86.73H1631.23V133H1621.43V86.73ZM1668.73 87.5C1673.98 89.32 1677.62 94.22 1677.62 99.96C1677.62 103.32 1676.43 106.54 1674.12 108.92C1672.79 110.39 1671.11 111.51 1669.29 112.28C1669.29 112.28 1669.22 112.35 1667.47 112.77C1665.72 113.19 1665.44 113.19 1665.44 113.19H1649.62V133H1639.82V103.32H1649.62H1664.46C1666.35 103.32 1667.82 101.85 1667.82 99.96C1667.82 98.14 1666.35 96.6 1664.46 96.6C1664.39 96.6 1664.32 96.6 1664.25 96.6L1664.18 96.67H1662.57V96.6H1639.82V88.62V86.8H1665.09C1665.09 86.8 1666.14 86.94 1667.12 87.08C1668.1 87.29 1668.73 87.5 1668.73 87.5ZM1708.89 105C1713.86 105 1718.55 107.73 1721 112.07C1722.26 114.17 1722.89 116.55 1722.89 119C1722.89 121.45 1722.26 123.83 1721 126C1718.55 130.34 1713.86 133 1708.89 133H1694.96C1688.8 133 1683.62 128.87 1682.01 123.2C1681.73 122.08 1681.59 120.89 1681.59 119.63H1691.18C1691.18 121.31 1692.23 122.71 1693.7 123.2H1708.89C1711.2 123.2 1713.02 121.31 1713.02 119C1713.02 116.69 1711.2 114.8 1708.89 114.8H1695.59C1691.67 114.8 1687.96 113.12 1685.3 110.32C1684.6 109.55 1683.97 108.71 1683.41 107.73C1682.22 105.63 1681.59 103.25 1681.59 100.8C1681.59 98.35 1682.22 95.97 1683.41 93.87C1685.86 89.46 1690.55 86.8 1695.59 86.8H1709.73C1715.89 86.8 1721.07 90.93 1722.61 96.6C1722.96 97.72 1723.1 98.91 1723.1 100.17H1713.51C1713.51 98.49 1712.46 97.09 1710.92 96.6H1695.59C1693.28 96.6 1691.39 98.49 1691.39 100.8C1691.39 103.11 1693.28 105 1695.59 105H1708.89Z" fill="#36454F" fill-opacity="0.5"/>
<path d="M760.277 61.27L775.467 33.9L781.627 44.96L771.617 63.09L771.127 64H758.807L760.277 61.27ZM810.817 61.27L812.287 64H799.967L799.477 63.09L790.237 46.43L785.687 38.24L785.547 37.96L779.387 26.83L779.877 25.92L783.867 18.64L784.357 17.66H786.737L787.157 18.64L791.217 25.92L810.817 61.27ZM845.889 17.8H855.689V46.71C855.689 50.42 854.359 53.99 851.839 56.65C850.929 57.63 849.949 58.54 848.829 59.38C844.769 62.39 840.009 64 834.899 64C829.789 64 824.959 62.39 820.969 59.38C819.849 58.54 818.869 57.63 817.889 56.58C815.439 53.92 814.109 50.42 814.109 46.64V17.8H823.909V43.14C823.909 49.02 828.669 54.06 834.479 54.2C834.619 54.2 834.759 54.2 834.899 54.2C835.039 54.2 835.179 54.2 835.319 54.2C841.129 54.06 845.889 49.09 845.889 43.14V17.8ZM888.121 64H878.321V34.46H888.121V64ZM862.781 17.8H904.431V27.6H888.121H878.321H862.781V17.8ZM929.835 17.94C942.505 17.94 952.865 28.3 952.865 40.97C952.865 53.71 942.505 64 929.835 64C917.095 64 906.805 53.71 906.805 40.97C906.805 28.3 917.095 17.94 929.835 17.94ZM943.205 40.97C943.205 33.62 937.185 27.6 929.835 27.6C922.415 27.6 916.395 33.62 916.395 40.97C916.395 48.39 922.415 54.41 929.835 54.41C937.185 54.41 943.205 48.39 943.205 40.97ZM969.72 54.2H996.67V64H959.92V17.45H969.72V54.2ZM1003.74 17.8H1045.04V27.6H1003.74V19.62V17.8ZM1013.54 44.26V54.2H1045.04V64H1003.74V56.02V54.2V34.39L1013.54 34.46H1040.91V44.26H1013.54ZM1051.97 61.27L1067.16 33.9L1073.32 44.96L1063.31 63.09L1062.82 64H1050.5L1051.97 61.27ZM1102.51 61.27L1103.98 64H1091.66L1091.17 63.09L1081.93 46.43L1077.38 38.24L1077.24 37.96L1071.08 26.83L1071.57 25.92L1075.56 18.64L1076.05 17.66H1078.43L1078.85 18.64L1082.91 25.92L1102.51 61.27ZM1133.1 36C1138.07 36 1142.76 38.73 1145.21 43.07C1146.47 45.17 1147.1 47.55 1147.1 50C1147.1 52.45 1146.47 54.83 1145.21 57C1142.76 61.34 1138.07 64 1133.1 64H1119.17C1113.01 64 1107.83 59.87 1106.22 54.2C1105.94 53.08 1105.8 51.89 1105.8 50.63H1115.39C1115.39 52.31 1116.44 53.71 1117.91 54.2H1133.1C1135.41 54.2 1137.23 52.31 1137.23 50C1137.23 47.69 1135.41 45.8 1133.1 45.8H1119.8C1115.88 45.8 1112.17 44.12 1109.51 41.32C1108.81 40.55 1108.18 39.71 1107.62 38.73C1106.43 36.63 1105.8 34.25 1105.8 31.8C1105.8 29.35 1106.43 26.97 1107.62 24.87C1110.07 20.46 1114.76 17.8 1119.8 17.8H1133.94C1140.1 17.8 1145.28 21.93 1146.82 27.6C1147.17 28.72 1147.31 29.91 1147.31 31.17H1137.72C1137.72 29.49 1136.67 28.09 1135.13 27.6H1119.8C1117.49 27.6 1115.6 29.49 1115.6 31.8C1115.6 34.11 1117.49 36 1119.8 36H1133.1ZM1154.4 17.8H1195.7V27.6H1154.4V19.62V17.8ZM1164.2 44.26V54.2H1195.7V64H1154.4V56.02V54.2V34.39L1164.2 34.46H1191.57V44.26H1164.2ZM1274.67 37.75C1274.88 38.8 1274.95 39.92 1274.95 40.97C1274.95 42.16 1274.81 43.28 1274.67 44.4C1273.2 54.69 1264.87 62.74 1254.58 64H1254.44H1232.95V34.46H1242.75V54.2H1253.81C1259.27 53.36 1263.68 49.16 1264.8 43.77C1265.01 42.86 1265.08 41.95 1265.08 40.97C1265.08 40.13 1265.01 39.22 1264.87 38.38C1264.17 35.16 1262.42 32.29 1259.76 30.33C1258.15 29.14 1256.33 28.3 1254.37 27.88C1253.74 27.74 1253.04 27.67 1252.34 27.6H1232.95V17.8L1253.53 17.87C1258.5 18.22 1263.33 20.25 1267.11 23.61C1271.24 27.25 1273.9 32.29 1274.67 37.75ZM1281.96 17.8H1323.26V27.6H1281.96V19.62V17.8ZM1291.76 44.26V54.2H1323.26V64H1281.96V56.02V54.2V34.39L1291.76 34.46H1319.13V44.26H1291.76ZM1330.19 61.27L1345.38 33.9L1351.54 44.96L1341.53 63.09L1341.04 64H1328.72L1330.19 61.27ZM1380.73 61.27L1382.2 64H1369.88L1369.39 63.09L1360.15 46.43L1355.6 38.24L1355.46 37.96L1349.3 26.83L1349.79 25.92L1353.78 18.64L1354.27 17.66H1356.65L1357.07 18.64L1361.13 25.92L1380.73 61.27ZM1397.65 54.2H1424.6V64H1387.85V17.45H1397.65V54.2ZM1431.67 17.8H1472.97V27.6H1431.67V19.62V17.8ZM1441.47 44.26V54.2H1472.97V64H1431.67V56.02V54.2V34.39L1441.47 34.46H1468.84V44.26H1441.47ZM1522.98 61.2L1524.66 64H1513.18L1512.62 63.16L1500.72 43.63C1500.44 43.7 1500.16 43.77 1499.88 43.84C1499.74 43.84 1499.6 43.84 1499.53 43.84C1499.46 43.91 1499.39 43.91 1499.32 43.91C1499.18 43.91 1499.04 43.91 1498.9 43.98C1498.83 43.98 1498.76 43.98 1498.69 43.98C1498.48 43.98 1498.34 44.05 1498.2 44.05C1497.99 44.05 1497.85 44.05 1497.71 44.05L1497.64 44.12H1497.5C1497.36 44.12 1497.22 44.12 1497.08 44.12C1497.08 44.12 1497.01 44.12 1496.94 44.12C1496.8 44.12 1496.73 44.12 1496.59 44.12H1496.45H1496.38H1496.31C1496.17 44.12 1496.03 44.19 1495.89 44.19H1489.8V64H1480V34.32H1495.89C1497.64 34.32 1499.39 33.97 1501 33.34C1501.07 33.27 1501.07 33.27 1501.14 33.27C1502.68 32.57 1504.01 31.66 1505.2 30.47C1506.11 29.63 1506.88 28.58 1507.51 27.46H1501H1480V17.66H1518.85L1518.92 19.41C1518.99 19.9 1518.99 20.46 1518.99 21.02C1518.99 22.7 1518.85 24.38 1518.43 26.06C1517.52 30.4 1515.28 34.32 1512.13 37.47C1511.78 37.82 1511.5 38.03 1511.22 38.31C1511.15 38.38 1511.01 38.52 1510.94 38.59C1510.94 38.59 1510.87 38.59 1510.87 38.66C1510.73 38.73 1510.59 38.87 1510.52 38.94C1510.38 39.01 1510.31 39.08 1510.17 39.15C1510.17 39.22 1510.1 39.29 1510.03 39.29L1509.96 39.36C1509.89 39.43 1509.82 39.5 1509.75 39.5L1522.98 61.2ZM1552.14 36C1557.11 36 1561.8 38.73 1564.25 43.07C1565.51 45.17 1566.14 47.55 1566.14 50C1566.14 52.45 1565.51 54.83 1564.25 57C1561.8 61.34 1557.11 64 1552.14 64H1538.21C1532.05 64 1526.87 59.87 1525.26 54.2C1524.98 53.08 1524.84 51.89 1524.84 50.63H1534.43C1534.43 52.31 1535.48 53.71 1536.95 54.2H1552.14C1554.45 54.2 1556.27 52.31 1556.27 50C1556.27 47.69 1554.45 45.8 1552.14 45.8H1538.84C1534.92 45.8 1531.21 44.12 1528.55 41.32C1527.85 40.55 1527.22 39.71 1526.66 38.73C1525.47 36.63 1524.84 34.25 1524.84 31.8C1524.84 29.35 1525.47 26.97 1526.66 24.87C1529.11 20.46 1533.8 17.8 1538.84 17.8H1552.98C1559.14 17.8 1564.32 21.93 1565.86 27.6C1566.21 28.72 1566.35 29.91 1566.35 31.17H1556.76C1556.76 29.49 1555.71 28.09 1554.17 27.6H1538.84C1536.53 27.6 1534.64 29.49 1534.64 31.8C1534.64 34.11 1536.53 36 1538.84 36H1552.14ZM1604.53 17.87H1614.33V64H1604.53V44.4H1583.25V64H1573.45V17.87H1583.25V34.53H1604.53V17.87ZM1621.43 17.73H1631.23V64H1621.43V17.73ZM1668.73 18.5C1673.98 20.32 1677.62 25.22 1677.62 30.96C1677.62 34.32 1676.43 37.54 1674.12 39.92C1672.79 41.39 1671.11 42.51 1669.29 43.28C1669.29 43.28 1669.22 43.35 1667.47 43.77C1665.72 44.19 1665.44 44.19 1665.44 44.19H1649.62V64H1639.82V34.32H1649.62H1664.46C1666.35 34.32 1667.82 32.85 1667.82 30.96C1667.82 29.14 1666.35 27.6 1664.46 27.6C1664.39 27.6 1664.32 27.6 1664.25 27.6L1664.18 27.67H1662.57V27.6H1639.82V19.62V17.8H1665.09C1665.09 17.8 1666.14 17.94 1667.12 18.08C1668.1 18.29 1668.73 18.5 1668.73 18.5ZM1708.89 36C1713.86 36 1718.55 38.73 1721 43.07C1722.26 45.17 1722.89 47.55 1722.89 50C1722.89 52.45 1722.26 54.83 1721 57C1718.55 61.34 1713.86 64 1708.89 64H1694.96C1688.8 64 1683.62 59.87 1682.01 54.2C1681.73 53.08 1681.59 51.89 1681.59 50.63H1691.18C1691.18 52.31 1692.23 53.71 1693.7 54.2H1708.89C1711.2 54.2 1713.02 52.31 1713.02 50C1713.02 47.69 1711.2 45.8 1708.89 45.8H1695.59C1691.67 45.8 1687.96 44.12 1685.3 41.32C1684.6 40.55 1683.97 39.71 1683.41 38.73C1682.22 36.63 1681.59 34.25 1681.59 31.8C1681.59 29.35 1682.22 26.97 1683.41 24.87C1685.86 20.46 1690.55 17.8 1695.59 17.8H1709.73C1715.89 17.8 1721.07 21.93 1722.61 27.6C1722.96 28.72 1723.1 29.91 1723.1 31.17H1713.51C1713.51 29.49 1712.46 28.09 1710.92 27.6H1695.59C1693.28 27.6 1691.39 29.49 1691.39 31.8C1691.39 34.11 1693.28 36 1695.59 36H1708.89Z" fill="#36454F" fill-opacity="0.3"/>
<path d="M-235.723 130.27L-220.533 102.9L-214.373 113.96L-224.383 132.09L-224.873 133H-237.193L-235.723 130.27ZM-185.183 130.27L-183.713 133H-196.033L-196.523 132.09L-205.763 115.43L-210.313 107.24L-210.453 106.96L-216.613 95.83L-216.123 94.92L-212.133 87.64L-211.643 86.66H-209.263L-208.843 87.64L-204.783 94.92L-185.183 130.27ZM-150.111 86.8H-140.311V115.71C-140.311 119.42 -141.641 122.99 -144.161 125.65C-145.071 126.63 -146.051 127.54 -147.171 128.38C-151.231 131.39 -155.991 133 -161.101 133C-166.211 133 -171.041 131.39 -175.031 128.38C-176.151 127.54 -177.131 126.63 -178.111 125.58C-180.561 122.92 -181.891 119.42 -181.891 115.64V86.8H-172.091V112.14C-172.091 118.02 -167.331 123.06 -161.521 123.2C-161.381 123.2 -161.241 123.2 -161.101 123.2C-160.961 123.2 -160.821 123.2 -160.681 123.2C-154.871 123.06 -150.111 118.09 -150.111 112.14V86.8ZM-107.879 133H-117.679V103.46H-107.879V133ZM-133.219 86.8H-91.5687V96.6H-107.879H-117.679H-133.219V86.8ZM-66.1653 86.94C-53.4953 86.94 -43.1353 97.3 -43.1353 109.97C-43.1353 122.71 -53.4953 133 -66.1653 133C-78.9053 133 -89.1953 122.71 -89.1953 109.97C-89.1953 97.3 -78.9053 86.94 -66.1653 86.94ZM-52.7953 109.97C-52.7953 102.62 -58.8153 96.6 -66.1653 96.6C-73.5853 96.6 -79.6053 102.62 -79.6053 109.97C-79.6053 117.39 -73.5853 123.41 -66.1653 123.41C-58.8153 123.41 -52.7953 117.39 -52.7953 109.97ZM-26.2801 123.2H0.669925V133H-36.0801V86.45H-26.2801V123.2ZM7.73828 86.8H49.0383V96.6H7.73828V88.62V86.8ZM17.5383 113.26V123.2H49.0383V133H7.73828V125.02V123.2V103.39L17.5383 103.46H44.9083V113.26H17.5383ZM55.9661 130.27L71.1561 102.9L77.3161 113.96L67.3061 132.09L66.8161 133H54.4961L55.9661 130.27ZM106.506 130.27L107.976 133H95.6561L95.1661 132.09L85.9261 115.43L81.3761 107.24L81.2361 106.96L75.0761 95.83L75.5661 94.92L79.5561 87.64L80.0461 86.66H82.4261L82.8461 87.64L86.9061 94.92L106.506 130.27ZM137.099 105C142.069 105 146.759 107.73 149.209 112.07C150.469 114.17 151.099 116.55 151.099 119C151.099 121.45 150.469 123.83 149.209 126C146.759 130.34 142.069 133 137.099 133H123.169C117.009 133 111.829 128.87 110.219 123.2C109.939 122.08 109.799 120.89 109.799 119.63H119.389C119.389 121.31 120.439 122.71 121.909 123.2H137.099C139.409 123.2 141.229 121.31 141.229 119C141.229 116.69 139.409 114.8 137.099 114.8H123.799C119.879 114.8 116.169 113.12 113.509 110.32C112.809 109.55 112.179 108.71 111.619 107.73C110.429 105.63 109.799 103.25 109.799 100.8C109.799 98.35 110.429 95.97 111.619 93.87C114.069 89.46 118.759 86.8 123.799 86.8H137.939C144.099 86.8 149.279 90.93 150.819 96.6C151.169 97.72 151.309 98.91 151.309 100.17H141.719C141.719 98.49 140.669 97.09 139.129 96.6H123.799C121.489 96.6 119.599 98.49 119.599 100.8C119.599 103.11 121.489 105 123.799 105H137.099ZM158.402 86.8H199.702V96.6H158.402V88.62V86.8ZM168.202 113.26V123.2H199.702V133H158.402V125.02V123.2V103.39L168.202 103.46H195.572V113.26H168.202ZM278.667 106.75C278.877 107.8 278.947 108.92 278.947 109.97C278.947 111.16 278.807 112.28 278.667 113.4C277.197 123.69 268.867 131.74 258.577 133H258.437H236.947V103.46H246.747V123.2H257.807C263.267 122.36 267.677 118.16 268.797 112.77C269.007 111.86 269.077 110.95 269.077 109.97C269.077 109.13 269.007 108.22 268.867 107.38C268.167 104.16 266.417 101.29 263.757 99.33C262.147 98.14 260.327 97.3 258.367 96.88C257.737 96.74 257.037 96.67 256.337 96.6H236.947V86.8L257.527 86.87C262.497 87.22 267.327 89.25 271.107 92.61C275.237 96.25 277.897 101.29 278.667 106.75ZM285.961 86.8H327.261V96.6H285.961V88.62V86.8ZM295.761 113.26V123.2H327.261V133H285.961V125.02V123.2V103.39L295.761 103.46H323.131V113.26H295.761ZM334.189 130.27L349.379 102.9L355.539 113.96L345.529 132.09L345.039 133H332.719L334.189 130.27ZM384.729 130.27L386.199 133H373.879L373.389 132.09L364.149 115.43L359.599 107.24L359.459 106.96L353.299 95.83L353.789 94.92L357.779 87.64L358.269 86.66H360.649L361.069 87.64L365.129 94.92L384.729 130.27ZM401.65 123.2H428.6V133H391.85V86.45H401.65V123.2ZM435.668 86.8H476.968V96.6H435.668V88.62V86.8ZM445.468 113.26V123.2H476.968V133H435.668V125.02V123.2V103.39L445.468 103.46H472.838V113.26H445.468ZM526.978 130.2L528.658 133H517.178L516.618 132.16L504.718 112.63C504.438 112.7 504.158 112.77 503.878 112.84C503.738 112.84 503.598 112.84 503.528 112.84C503.458 112.91 503.388 112.91 503.318 112.91C503.178 112.91 503.038 112.91 502.898 112.98C502.828 112.98 502.758 112.98 502.688 112.98C502.478 112.98 502.338 113.05 502.198 113.05C501.988 113.05 501.848 113.05 501.708 113.05L501.638 113.12H501.498C501.358 113.12 501.218 113.12 501.078 113.12C501.078 113.12 501.008 113.12 500.938 113.12C500.798 113.12 500.728 113.12 500.588 113.12H500.448H500.378H500.308C500.168 113.12 500.028 113.19 499.888 113.19H493.798V133H483.998V103.32H499.888C501.638 103.32 503.388 102.97 504.998 102.34C505.068 102.27 505.068 102.27 505.138 102.27C506.678 101.57 508.008 100.66 509.198 99.47C510.108 98.63 510.878 97.58 511.508 96.46H504.998H483.998V86.66H522.848L522.918 88.41C522.988 88.9 522.988 89.46 522.988 90.02C522.988 91.7 522.848 93.38 522.428 95.06C521.518 99.4 519.278 103.32 516.128 106.47C515.778 106.82 515.498 107.03 515.218 107.31C515.148 107.38 515.008 107.52 514.938 107.59C514.938 107.59 514.868 107.59 514.868 107.66C514.728 107.73 514.588 107.87 514.518 107.94C514.378 108.01 514.308 108.08 514.168 108.15C514.168 108.22 514.098 108.29 514.028 108.29L513.958 108.36C513.888 108.43 513.818 108.5 513.748 108.5L526.978 130.2ZM556.142 105C561.112 105 565.802 107.73 568.252 112.07C569.512 114.17 570.142 116.55 570.142 119C570.142 121.45 569.512 123.83 568.252 126C565.802 130.34 561.112 133 556.142 133H542.212C536.052 133 530.872 128.87 529.262 123.2C528.982 122.08 528.842 120.89 528.842 119.63H538.432C538.432 121.31 539.482 122.71 540.952 123.2H556.142C558.452 123.2 560.272 121.31 560.272 119C560.272 116.69 558.452 114.8 556.142 114.8H542.842C538.922 114.8 535.212 113.12 532.552 110.32C531.852 109.55 531.222 108.71 530.662 107.73C529.472 105.63 528.842 103.25 528.842 100.8C528.842 98.35 529.472 95.97 530.662 93.87C533.112 89.46 537.802 86.8 542.842 86.8H556.982C563.142 86.8 568.322 90.93 569.862 96.6C570.212 97.72 570.352 98.91 570.352 100.17H560.762C560.762 98.49 559.712 97.09 558.172 96.6H542.842C540.532 96.6 538.642 98.49 538.642 100.8C538.642 103.11 540.532 105 542.842 105H556.142ZM608.525 86.87H618.325V133H608.525V113.4H587.245V133H577.445V86.87H587.245V103.53H608.525V86.87ZM625.434 86.73H635.234V133H625.434V86.73ZM672.732 87.5C677.982 89.32 681.622 94.22 681.622 99.96C681.622 103.32 680.432 106.54 678.122 108.92C676.792 110.39 675.112 111.51 673.292 112.28C673.292 112.28 673.222 112.35 671.472 112.77C669.722 113.19 669.442 113.19 669.442 113.19H653.622V133H643.822V103.32H653.622H668.462C670.352 103.32 671.822 101.85 671.822 99.96C671.822 98.14 670.352 96.6 668.462 96.6C668.392 96.6 668.322 96.6 668.252 96.6L668.182 96.67H666.572V96.6H643.822V88.62V86.8H669.092C669.092 86.8 670.142 86.94 671.122 87.08C672.102 87.29 672.732 87.5 672.732 87.5ZM712.89 105C717.86 105 722.55 107.73 725 112.07C726.26 114.17 726.89 116.55 726.89 119C726.89 121.45 726.26 123.83 725 126C722.55 130.34 717.86 133 712.89 133H698.96C692.8 133 687.62 128.87 686.01 123.2C685.73 122.08 685.59 120.89 685.59 119.63H695.18C695.18 121.31 696.23 122.71 697.7 123.2H712.89C715.2 123.2 717.02 121.31 717.02 119C717.02 116.69 715.2 114.8 712.89 114.8H699.59C695.67 114.8 691.96 113.12 689.3 110.32C688.6 109.55 687.97 108.71 687.41 107.73C686.22 105.63 685.59 103.25 685.59 100.8C685.59 98.35 686.22 95.97 687.41 93.87C689.86 89.46 694.55 86.8 699.59 86.8H713.73C719.89 86.8 725.07 90.93 726.61 96.6C726.96 97.72 727.1 98.91 727.1 100.17H717.51C717.51 98.49 716.46 97.09 714.92 96.6H699.59C697.28 96.6 695.39 98.49 695.39 100.8C695.39 103.11 697.28 105 699.59 105H712.89Z" fill="#36454F" fill-opacity="0.3"/>
<path d="M-235.723 61.27L-220.533 33.9L-214.373 44.96L-224.383 63.09L-224.873 64H-237.193L-235.723 61.27ZM-185.183 61.27L-183.713 64H-196.033L-196.523 63.09L-205.763 46.43L-210.313 38.24L-210.453 37.96L-216.613 26.83L-216.123 25.92L-212.133 18.64L-211.643 17.66H-209.263L-208.843 18.64L-204.783 25.92L-185.183 61.27ZM-150.111 17.8H-140.311V46.71C-140.311 50.42 -141.641 53.99 -144.161 56.65C-145.071 57.63 -146.051 58.54 -147.171 59.38C-151.231 62.39 -155.991 64 -161.101 64C-166.211 64 -171.041 62.39 -175.031 59.38C-176.151 58.54 -177.131 57.63 -178.111 56.58C-180.561 53.92 -181.891 50.42 -181.891 46.64V17.8H-172.091V43.14C-172.091 49.02 -167.331 54.06 -161.521 54.2C-161.381 54.2 -161.241 54.2 -161.101 54.2C-160.961 54.2 -160.821 54.2 -160.681 54.2C-154.871 54.06 -150.111 49.09 -150.111 43.14V17.8ZM-107.879 64H-117.679V34.46H-107.879V64ZM-133.219 17.8H-91.5687V27.6H-107.879H-117.679H-133.219V17.8ZM-66.1653 17.94C-53.4953 17.94 -43.1353 28.3 -43.1353 40.97C-43.1353 53.71 -53.4953 64 -66.1653 64C-78.9053 64 -89.1953 53.71 -89.1953 40.97C-89.1953 28.3 -78.9053 17.94 -66.1653 17.94ZM-52.7953 40.97C-52.7953 33.62 -58.8153 27.6 -66.1653 27.6C-73.5853 27.6 -79.6053 33.62 -79.6053 40.97C-79.6053 48.39 -73.5853 54.41 -66.1653 54.41C-58.8153 54.41 -52.7953 48.39 -52.7953 40.97ZM-26.2801 54.2H0.669925V64H-36.0801V17.45H-26.2801V54.2ZM7.73828 17.8H49.0383V27.6H7.73828V19.62V17.8ZM17.5383 44.26V54.2H49.0383V64H7.73828V56.02V54.2V34.39L17.5383 34.46H44.9083V44.26H17.5383ZM55.9661 61.27L71.1561 33.9L77.3161 44.96L67.3061 63.09L66.8161 64H54.4961L55.9661 61.27ZM106.506 61.27L107.976 64H95.6561L95.1661 63.09L85.9261 46.43L81.3761 38.24L81.2361 37.96L75.0761 26.83L75.5661 25.92L79.5561 18.64L80.0461 17.66H82.4261L82.8461 18.64L86.9061 25.92L106.506 61.27ZM137.099 36C142.069 36 146.759 38.73 149.209 43.07C150.469 45.17 151.099 47.55 151.099 50C151.099 52.45 150.469 54.83 149.209 57C146.759 61.34 142.069 64 137.099 64H123.169C117.009 64 111.829 59.87 110.219 54.2C109.939 53.08 109.799 51.89 109.799 50.63H119.389C119.389 52.31 120.439 53.71 121.909 54.2H137.099C139.409 54.2 141.229 52.31 141.229 50C141.229 47.69 139.409 45.8 137.099 45.8H123.799C119.879 45.8 116.169 44.12 113.509 41.32C112.809 40.55 112.179 39.71 111.619 38.73C110.429 36.63 109.799 34.25 109.799 31.8C109.799 29.35 110.429 26.97 111.619 24.87C114.069 20.46 118.759 17.8 123.799 17.8H137.939C144.099 17.8 149.279 21.93 150.819 27.6C151.169 28.72 151.309 29.91 151.309 31.17H141.719C141.719 29.49 140.669 28.09 139.129 27.6H123.799C121.489 27.6 119.599 29.49 119.599 31.8C119.599 34.11 121.489 36 123.799 36H137.099ZM158.402 17.8H199.702V27.6H158.402V19.62V17.8ZM168.202 44.26V54.2H199.702V64H158.402V56.02V54.2V34.39L168.202 34.46H195.572V44.26H168.202ZM278.667 37.75C278.877 38.8 278.947 39.92 278.947 40.97C278.947 42.16 278.807 43.28 278.667 44.4C277.197 54.69 268.867 62.74 258.577 64H258.437H236.947V34.46H246.747V54.2H257.807C263.267 53.36 267.677 49.16 268.797 43.77C269.007 42.86 269.077 41.95 269.077 40.97C269.077 40.13 269.007 39.22 268.867 38.38C268.167 35.16 266.417 32.29 263.757 30.33C262.147 29.14 260.327 28.3 258.367 27.88C257.737 27.74 257.037 27.67 256.337 27.6H236.947V17.8L257.527 17.87C262.497 18.22 267.327 20.25 271.107 23.61C275.237 27.25 277.897 32.29 278.667 37.75ZM285.961 17.8H327.261V27.6H285.961V19.62V17.8ZM295.761 44.26V54.2H327.261V64H285.961V56.02V54.2V34.39L295.761 34.46H323.131V44.26H295.761ZM334.189 61.27L349.379 33.9L355.539 44.96L345.529 63.09L345.039 64H332.719L334.189 61.27ZM384.729 61.27L386.199 64H373.879L373.389 63.09L364.149 46.43L359.599 38.24L359.459 37.96L353.299 26.83L353.789 25.92L357.779 18.64L358.269 17.66H360.649L361.069 18.64L365.129 25.92L384.729 61.27ZM401.65 54.2H428.6V64H391.85V17.45H401.65V54.2ZM435.668 17.8H476.968V27.6H435.668V19.62V17.8ZM445.468 44.26V54.2H476.968V64H435.668V56.02V54.2V34.39L445.468 34.46H472.838V44.26H445.468ZM526.978 61.2L528.658 64H517.178L516.618 63.16L504.718 43.63C504.438 43.7 504.158 43.77 503.878 43.84C503.738 43.84 503.598 43.84 503.528 43.84C503.458 43.91 503.388 43.91 503.318 43.91C503.178 43.91 503.038 43.91 502.898 43.98C502.828 43.98 502.758 43.98 502.688 43.98C502.478 43.98 502.338 44.05 502.198 44.05C501.988 44.05 501.848 44.05 501.708 44.05L501.638 44.12H501.498C501.358 44.12 501.218 44.12 501.078 44.12C501.078 44.12 501.008 44.12 500.938 44.12C500.798 44.12 500.728 44.12 500.588 44.12H500.448H500.378H500.308C500.168 44.12 500.028 44.19 499.888 44.19H493.798V64H483.998V34.32H499.888C501.638 34.32 503.388 33.97 504.998 33.34C505.068 33.27 505.068 33.27 505.138 33.27C506.678 32.57 508.008 31.66 509.198 30.47C510.108 29.63 510.878 28.58 511.508 27.46H504.998H483.998V17.66H522.848L522.918 19.41C522.988 19.9 522.988 20.46 522.988 21.02C522.988 22.7 522.848 24.38 522.428 26.06C521.518 30.4 519.278 34.32 516.128 37.47C515.778 37.82 515.498 38.03 515.218 38.31C515.148 38.38 515.008 38.52 514.938 38.59C514.938 38.59 514.868 38.59 514.868 38.66C514.728 38.73 514.588 38.87 514.518 38.94C514.378 39.01 514.308 39.08 514.168 39.15C514.168 39.22 514.098 39.29 514.028 39.29L513.958 39.36C513.888 39.43 513.818 39.5 513.748 39.5L526.978 61.2ZM556.142 36C561.112 36 565.802 38.73 568.252 43.07C569.512 45.17 570.142 47.55 570.142 50C570.142 52.45 569.512 54.83 568.252 57C565.802 61.34 561.112 64 556.142 64H542.212C536.052 64 530.872 59.87 529.262 54.2C528.982 53.08 528.842 51.89 528.842 50.63H538.432C538.432 52.31 539.482 53.71 540.952 54.2H556.142C558.452 54.2 560.272 52.31 560.272 50C560.272 47.69 558.452 45.8 556.142 45.8H542.842C538.922 45.8 535.212 44.12 532.552 41.32C531.852 40.55 531.222 39.71 530.662 38.73C529.472 36.63 528.842 34.25 528.842 31.8C528.842 29.35 529.472 26.97 530.662 24.87C533.112 20.46 537.802 17.8 542.842 17.8H556.982C563.142 17.8 568.322 21.93 569.862 27.6C570.212 28.72 570.352 29.91 570.352 31.17H560.762C560.762 29.49 559.712 28.09 558.172 27.6H542.842C540.532 27.6 538.642 29.49 538.642 31.8C538.642 34.11 540.532 36 542.842 36H556.142ZM608.525 17.87H618.325V64H608.525V44.4H587.245V64H577.445V17.87H587.245V34.53H608.525V17.87ZM625.434 17.73H635.234V64H625.434V17.73ZM672.732 18.5C677.982 20.32 681.622 25.22 681.622 30.96C681.622 34.32 680.432 37.54 678.122 39.92C676.792 41.39 675.112 42.51 673.292 43.28C673.292 43.28 673.222 43.35 671.472 43.77C669.722 44.19 669.442 44.19 669.442 44.19H653.622V64H643.822V34.32H653.622H668.462C670.352 34.32 671.822 32.85 671.822 30.96C671.822 29.14 670.352 27.6 668.462 27.6C668.392 27.6 668.322 27.6 668.252 27.6L668.182 27.67H666.572V27.6H643.822V19.62V17.8H669.092C669.092 17.8 670.142 17.94 671.122 18.08C672.102 18.29 672.732 18.5 672.732 18.5ZM712.89 36C717.86 36 722.55 38.73 725 43.07C726.26 45.17 726.89 47.55 726.89 50C726.89 52.45 726.26 54.83 725 57C722.55 61.34 717.86 64 712.89 64H698.96C692.8 64 687.62 59.87 686.01 54.2C685.73 53.08 685.59 51.89 685.59 50.63H695.18C695.18 52.31 696.23 53.71 697.7 54.2H712.89C715.2 54.2 717.02 52.31 717.02 50C717.02 47.69 715.2 45.8 712.89 45.8H699.59C695.67 45.8 691.96 44.12 689.3 41.32C688.6 40.55 687.97 39.71 687.41 38.73C686.22 36.63 685.59 34.25 685.59 31.8C685.59 29.35 686.22 26.97 687.41 24.87C689.86 20.46 694.55 17.8 699.59 17.8H713.73C719.89 17.8 725.07 21.93 726.61 27.6C726.96 28.72 727.1 29.91 727.1 31.17H717.51C717.51 29.49 716.46 28.09 714.92 27.6H699.59C697.28 27.6 695.39 29.49 695.39 31.8C695.39 34.11 697.28 36 699.59 36H712.89Z" fill="#36454F" fill-opacity="0.5"/>
</g>
<defs>
<clipPath id="clip0_131_137">
<rect width="1440" height="145" fill="white"/>
</clipPath>
</defs>
</svg>
